<svg width="24" height="24" viewBox="0 0 24 24" fill="none" xmlns="http://www.w3.org/2000/svg">
<rect width="24" height="24" rx="12" fill="#777777"/>
<path d="M8.66328 8.67182C8.40293 8.93218 8.40293 9.35428 8.66328 9.61464L11.0534 12.0047L8.66328 14.3948C8.40293 14.6552 8.40293 15.0773 8.66328 15.3376C8.92363 15.598 9.34574 15.598 9.60609 15.3376L11.9962 12.9475L14.3863 15.3376C14.6466 15.598 15.0688 15.598 15.3291 15.3376C15.5894 15.0773 15.5894 14.6552 15.3291 14.3948L12.939 12.0047L15.3291 9.61464C15.5894 9.3543 15.5894 8.93218 15.3291 8.67184C15.0687 8.41148 14.6466 8.41148 14.3863 8.67184L11.9962 11.0619L9.60609 8.67182C9.34574 8.41148 8.92363 8.41148 8.66328 8.67182Z" fill="white"/>
</svg>
