<svg width="157" height="19" viewBox="0 0 157 19" fill="none" xmlns="http://www.w3.org/2000/svg">
<g clip-path="url(#clip0_3565_1100)">
<path d="M14.2073 10.1607C14.0296 9.2402 13.3508 8.8399 12.6448 9.16661C12.5134 9.2552 12.3551 9.29366 12.1981 9.27512C12.0412 9.25657 11.8959 9.18224 11.7883 9.0654C11.3872 8.70653 11.0958 8.76631 10.7217 9.16661C10.5934 9.29453 10.4816 9.43838 10.3891 9.59472C10.1041 10.1007 9.84561 10.6214 9.61481 11.1549C9.20325 12.0633 8.93285 13.0305 8.81315 14.0222C8.75765 14.4537 8.85923 14.891 9.09897 15.2525C9.33872 15.614 9.70031 15.8752 10.1165 15.9876C10.3397 16.0475 10.5721 16.0659 10.7953 16.1211C11.0926 16.2063 11.4082 16.2016 11.7029 16.1075C11.9976 16.0135 12.2586 15.8342 12.4535 15.5918C12.6329 15.3879 12.7973 15.1711 12.9454 14.9429C13.5818 13.9101 13.9991 12.7551 14.1708 11.551C14.2646 11.0937 14.2768 10.6232 14.2068 10.1616L14.2073 10.1607ZM12.8044 11.9097C12.6227 12.761 12.3025 13.5759 11.8567 14.3213C11.6714 14.6784 11.3883 14.974 11.0411 15.1728C10.5855 15.4028 10.2895 15.2464 10.2166 14.7125C10.141 14.0117 10.2268 13.3028 10.4674 12.6411C10.6724 12.0381 10.923 11.4536 11.1877 10.8692C11.2237 10.7771 11.3565 10.722 11.4611 10.6759L12.6448 10.2158L13.0731 10.0546C12.9722 10.7173 12.9135 11.3202 12.8042 11.9093L12.8044 11.9097Z" fill="#F94B1D"/>
<path d="M17.3049 13.1843C17.2642 13.1827 17.2237 13.1906 17.1865 13.2074C17.2657 13.1775 17.3529 13.1775 17.432 13.2074C17.3917 13.1907 17.3484 13.1829 17.3049 13.1843Z" fill="#F94B1D"/>
<path d="M7.05908 12.3467C7.09895 12.3027 7.14902 12.2695 7.20477 12.25C7.14816 12.2677 7.09766 12.3012 7.05908 12.3467Z" fill="#F94B1D"/>
<path d="M6.42607 7.90552C6.33035 8.18798 6.18871 8.45235 6.00698 8.68778C5.98048 8.70996 5.95609 8.73459 5.93414 8.76137C5.87721 8.83084 5.83441 8.91097 5.80818 8.99717C5.78195 9.08337 5.77281 9.17395 5.78128 9.26373C5.78975 9.35351 5.81567 9.44071 5.85755 9.52036C5.89942 9.6 5.95644 9.67052 6.02533 9.72787C6.75882 10.2941 7.42378 10.3308 7.87956 9.44259C8.32505 8.53899 8.63222 7.57232 8.79058 6.5756C8.8254 6.32497 8.77397 6.06986 8.64489 5.85295C8.40958 5.49507 8.05299 5.23634 7.64214 5.12539C7.55808 5.09555 7.46647 5.09555 7.38241 5.12539C7.186 5.2266 7.05865 5.12539 6.92681 5.00964C6.759 4.83682 6.54824 4.71282 6.31664 4.65067C6.08503 4.58851 5.84114 4.59049 5.61056 4.6564C5.08342 4.85167 4.61334 5.17772 4.24358 5.60455C3.08281 6.8168 2.15595 8.23708 1.51052 9.79256C0.898011 11.1526 0.555789 12.6209 0.503276 14.1141C0.485855 14.3781 0.529064 14.6426 0.629531 14.8869C0.729998 15.1312 0.885003 15.3487 1.08244 15.5225C1.62006 15.9608 2.20006 16.3432 2.81365 16.6639C3.04962 16.7593 3.30202 16.8064 3.55618 16.8025C3.81033 16.7985 4.06118 16.7435 4.29412 16.6408C5.62339 16.1555 6.83602 15.3916 7.8524 14.3994C7.97434 14.3004 8.06899 14.1713 8.12723 14.0247C8.18548 13.878 8.20537 13.7186 8.18497 13.5619C8.09353 13.1213 7.96228 12.69 7.79287 12.2736C7.74873 12.1681 7.67108 12.0805 7.57216 12.0245C7.47324 11.9686 7.3587 11.9475 7.24661 11.9647C7.13613 11.9556 7.02614 11.9874 6.93724 12.0543C6.84834 12.1212 6.78663 12.2186 6.76368 12.3281C6.66895 12.7399 6.42323 13.1001 6.07605 13.336C5.33866 14.0484 4.47045 14.6081 3.52034 14.9836C2.88182 15.2046 2.44978 14.8869 2.43611 14.1783C2.42613 13.8375 2.45054 13.4965 2.50896 13.1607C2.83527 11.5394 3.45294 9.99232 4.33135 8.59601C4.69472 7.92056 5.1871 7.32462 5.77999 6.84271C5.97158 6.70668 6.19454 6.62265 6.42751 6.59868C6.61888 6.59868 6.76457 6.6908 6.69173 6.94847C6.61977 7.27192 6.53158 7.59147 6.42751 7.90589L6.42607 7.90552ZM7.21873 12.2502C7.16298 12.2697 7.11291 12.3029 7.07304 12.3468C7.10792 12.3034 7.15352 12.2701 7.20524 12.2502H7.21873Z" fill="#F94B1D"/>
<path d="M20.8443 10.8463L20.7993 10.8003L20.8313 10.8325L20.8443 10.8463Z" fill="#F94B1D"/>
<path d="M17.3049 13.1843C17.2642 13.1827 17.2237 13.1906 17.1865 13.2074C17.2657 13.1775 17.3529 13.1775 17.432 13.2074C17.3917 13.1907 17.3484 13.1829 17.3049 13.1843Z" fill="#F94B1D"/>
<path d="M32.225 10.3909C31.8879 9.35989 31.241 8.76171 30.1977 9.34626C30.029 9.43839 29.9427 9.34626 29.8287 9.25414C29.2045 8.77552 28.7495 8.82149 28.2662 9.41949C28.0696 9.66353 27.8958 9.9254 27.7469 10.2017C27.1128 11.382 26.6669 12.6558 26.4256 13.9764C26.3173 14.4354 26.3491 14.9169 26.5168 15.3573C26.6262 15.5783 26.7445 15.7945 26.872 16.0024C26.7445 16.076 26.617 16.1543 26.4943 16.2417C26.4193 16.3197 26.3178 16.3659 26.2104 16.371C26.1029 16.3761 25.9976 16.3398 25.9157 16.2693C25.7106 16.1408 25.517 15.9946 25.3371 15.8322C24.6037 15.0715 23.8658 14.3122 23.1688 13.5299C22.6267 12.9132 22.139 12.2505 21.6245 11.6062L21.67 11.5462C21.9207 11.6293 22.1877 11.6497 22.448 11.6056C22.7083 11.5615 22.9541 11.4543 23.1643 11.2931C24.2153 10.5324 25.0097 9.464 25.4403 8.23239C25.6087 7.82543 25.6357 7.37283 25.5169 6.94837C25.3981 6.52392 25.1404 6.15265 24.7859 5.89508C24.7002 5.81639 24.6294 5.72254 24.5769 5.61816C24.4445 5.26423 24.1899 4.97057 23.8601 4.79127C23.5303 4.61197 23.1474 4.55909 22.7821 4.64239C22.3265 4.70689 21.8709 4.82646 21.4151 4.90477C21.3705 4.90735 21.3258 4.90093 21.2836 4.8859C21.2415 4.87086 21.2027 4.84751 21.1696 4.81719C20.9728 4.5548 20.7866 4.28769 20.4131 4.35674C20.0395 4.42579 19.9562 4.77594 19.9159 5.09829V5.12591C19.9159 5.3376 19.8013 5.41119 19.6197 5.47116C18.4132 5.86191 17.2855 6.46697 16.2895 7.25789C15.9099 7.56662 15.5701 7.92207 15.2779 8.31598C15.1052 8.55148 15.0257 8.84353 15.0547 9.13512C15.216 9.98346 15.565 10.784 16.0756 11.477C16.1744 11.6072 16.3166 11.6967 16.4758 11.7288C16.635 11.761 16.8004 11.7336 16.9411 11.6518C17.0688 11.5701 17.1635 11.4449 17.2078 11.2989C17.2522 11.1529 17.2434 10.9957 17.183 10.8557C17.0876 10.5534 17.0085 10.2461 16.9461 9.93518C16.9147 9.74748 16.9468 9.55455 17.0372 9.38751C17.6409 8.60532 18.4601 8.02093 19.3918 7.7078C19.3143 8.03869 19.2461 8.26928 19.1822 8.49932C19.1497 8.64265 19.104 8.78257 19.0455 8.91725C19.0047 8.98152 18.9412 9.02761 18.8678 9.04608C18.1525 9.2485 18.0165 9.58466 18.3712 10.2564L18.4252 10.3531C18.4743 10.4126 18.5049 10.4854 18.513 10.5625C18.5211 10.6395 18.5064 10.7172 18.4707 10.7858C18.2743 11.2967 18.093 11.8168 17.9012 12.3321C17.8194 12.5576 17.7235 12.7924 17.6323 13.0044C17.5245 12.9473 17.4026 12.9233 17.2814 12.9354C17.1986 12.9429 17.118 12.9668 17.0443 13.0058C16.9707 13.0448 16.9053 13.0981 16.852 13.1626C16.7987 13.2271 16.7585 13.3016 16.7337 13.3818C16.7089 13.462 16.7 13.5463 16.7075 13.63C16.689 13.8488 16.6478 14.065 16.5844 14.2751C16.4888 14.588 16.3657 14.8964 16.2571 15.1956C16.1833 15.3694 16.1621 15.5613 16.1962 15.7472C16.2303 15.9331 16.318 16.1047 16.4485 16.2403C16.5525 16.3546 16.6636 16.4622 16.781 16.5624C17.3003 16.9858 17.7469 16.8931 18.0611 16.2813C18.2248 15.9543 18.3669 15.6139 18.5167 15.2734C18.9085 14.27 19.2862 13.2621 19.6792 12.2358C19.7332 12.3094 19.7886 12.3739 19.8387 12.4475C21.0802 14.2002 22.4667 15.8432 23.9834 17.3589C24.3342 17.7185 24.7086 18.0537 25.1041 18.3623L25.1401 18.3986C25.2515 18.4918 25.38 18.5618 25.5183 18.6046C25.6566 18.6475 25.8019 18.6622 25.9459 18.6481C26.0898 18.634 26.2296 18.5913 26.3572 18.5224C26.4847 18.4535 26.5975 18.3598 26.6891 18.2467C27.2001 17.7985 27.5453 17.1885 27.6685 16.5163C28.0055 16.5853 28.3426 16.6451 28.6799 16.7187C28.9436 16.7894 29.221 16.7902 29.4852 16.7208C29.7494 16.6515 29.9913 16.5145 30.1877 16.3229C30.5363 15.9882 30.8423 15.611 31.0989 15.2C31.7078 14.1302 32.0957 12.9467 32.2392 11.7212C32.3343 11.2825 32.3296 10.8277 32.2255 10.3911L32.225 10.3909ZM17.1913 13.2074C17.2285 13.1906 17.269 13.1827 17.3097 13.1843C17.354 13.1857 17.3974 13.1966 17.4372 13.2165C17.3576 13.1823 17.2684 13.179 17.1866 13.2072L17.1913 13.2074ZM20.8357 10.8503L20.7998 10.8007L20.8357 10.8283V10.8503ZM21.2183 10.0128C20.8357 9.8932 20.6397 10.0128 20.5442 10.473C20.4028 10.2613 20.28 10.0956 20.1798 9.91156C20.1526 9.82941 20.1526 9.74058 20.1798 9.65844C20.4137 8.78091 20.6538 7.90647 20.9001 7.03512C20.9278 6.93815 20.9915 6.85573 21.0778 6.80508C21.7235 6.52963 22.418 6.39026 23.1188 6.39551C23.9433 6.39551 24.2303 6.85577 23.9251 7.64275C23.592 8.50358 23.0424 9.26178 22.3306 9.84251C22.1773 9.96861 21.9933 10.0509 21.7978 10.0809C21.6024 10.1109 21.4025 10.0874 21.219 10.013L21.2183 10.0128ZM30.3296 12.3139C30.1371 13.192 29.7766 14.0235 29.2684 14.7619C29.1178 14.9642 28.9307 15.1359 28.7171 15.2681C28.4388 15.4477 28.2615 15.3648 28.2615 15.0288C28.2222 14.6085 28.2468 14.1846 28.3343 13.7718C28.5439 12.9944 28.8354 12.2438 29.1133 11.4706C29.1811 11.3506 29.2898 11.2594 29.4191 11.2142C29.7882 11.0489 30.1661 10.9053 30.6219 10.7265C30.517 11.3202 30.4582 11.8311 30.3341 12.3234L30.3296 12.3139Z" fill="#F94B1D"/>
<path d="M6.88184 6.56641C7.00486 6.69524 6.93202 6.83806 6.88184 6.96217C6.94569 6.83806 7.01404 6.69524 6.88184 6.56641Z" fill="#F94B1D"/>
<path d="M7.20526 12.25C7.1495 12.2695 7.09943 12.3027 7.05957 12.3467C7.09815 12.3012 7.14865 12.2677 7.20526 12.25Z" fill="#F94B1D"/>
<path d="M38.8626 11.0765C38.8311 11.1401 38.8191 11.2118 38.8281 11.2823C38.8371 11.3529 38.8666 11.4192 38.9129 11.4728C38.9997 11.5602 39.0591 11.6714 39.0837 11.7927C39.1083 11.914 39.0971 12.0399 39.0513 12.1547C39.0056 12.2696 38.9274 12.3683 38.8265 12.4385C38.7256 12.5087 38.6065 12.5474 38.484 12.5497C38.4193 12.5543 38.3574 12.5782 38.3062 12.6183C38.2549 12.6585 38.2166 12.7131 38.1962 12.7752C37.6769 13.8015 37.1621 14.8286 36.6198 15.8405C36.4746 16.0896 36.2885 16.3119 36.0694 16.4979C35.9399 16.6173 35.779 16.6965 35.606 16.7258C35.4331 16.7551 35.2554 16.7334 35.0944 16.6633C35.0138 16.636 34.9284 16.6266 34.8438 16.6356C34.6463 16.6978 34.4325 16.6784 34.249 16.5819C34.0655 16.4854 33.9273 16.3194 33.8645 16.1203C33.8619 16.1051 33.8619 16.0896 33.8645 16.0743C33.728 15.6368 33.6364 15.1862 33.5911 14.7297C33.5532 14.3259 33.538 13.9202 33.5456 13.5146V12.2868H33.4736C33.3597 12.2913 33.2468 12.2627 33.1484 12.2045C33.0501 12.1462 32.9703 12.0607 32.9185 11.958C32.8668 11.8553 32.8452 11.7398 32.8564 11.6252C32.8676 11.5105 32.9111 11.4015 32.9817 11.311C33.4374 10.6483 33.893 9.99936 34.3487 9.36423C34.4506 9.20689 34.6059 9.0925 34.7853 9.04246C34.9648 8.99242 35.1561 9.01017 35.3235 9.09239C35.582 9.21154 35.8227 9.36645 36.0389 9.55266C36.1056 9.61864 36.1586 9.69742 36.1947 9.78436C36.2309 9.87131 36.2496 9.96467 36.2496 10.059C36.2496 10.1533 36.2309 10.2467 36.1947 10.3336C36.1586 10.4206 36.1056 10.4993 36.0389 10.5653L35.9934 10.6113C35.8817 10.7261 35.7933 10.8619 35.7333 11.011C35.2854 12.2511 35.1784 13.5905 35.4235 14.8871C35.4375 14.8461 35.4542 14.8061 35.4737 14.7675C36.0566 13.8179 36.539 12.8088 36.9127 11.7571C36.9562 11.6477 36.9734 11.5294 36.9628 11.4119C36.8783 10.6366 37.0327 9.85384 37.4049 9.17052C37.4362 9.07774 37.4854 8.99215 37.5497 8.91871C37.6139 8.84526 37.692 8.78543 37.7793 8.74267C37.8666 8.69992 37.9614 8.67508 38.0583 8.66961C38.1552 8.66414 38.2522 8.67814 38.3437 8.7108L38.4485 8.7615C38.6208 8.83392 38.7856 8.92333 38.9405 9.02843C39.0754 9.10893 39.1811 9.23126 39.2418 9.37724C39.3026 9.52323 39.3151 9.68511 39.2775 9.83885C39.165 10.2597 39.0268 10.6732 38.8638 11.0768L38.8626 11.0765Z" fill="#F94B1D"/>
<path d="M35.2814 9.33211H35.3131C35.2819 9.3122 35.2482 9.29673 35.2129 9.28613L35.2814 9.33211Z" fill="#F94B1D"/>
<path d="M38.6025 12.2778C38.6644 12.2568 38.7217 12.224 38.7713 12.1812C38.722 12.2245 38.6646 12.2573 38.6025 12.2778Z" fill="#F94B1D"/>
<path d="M44.3294 13.1297C44.2018 13.0154 44.0349 12.9561 43.8645 12.9647C43.6941 12.9733 43.5339 13.049 43.4182 13.1757C43.3315 13.254 43.2586 13.3462 43.1727 13.4237C42.685 13.8609 42.1976 14.3034 41.6958 14.7304C41.5512 14.8396 41.3989 14.938 41.2402 15.025L41.149 14.979L41.4587 13.1381L41.9143 13.2164H41.9827C42.4939 13.3065 43.0197 13.1894 43.4461 12.8905C43.8725 12.5915 44.1651 12.1349 44.2605 11.6196C44.2962 11.3741 44.316 11.1266 44.3197 10.8786C44.3197 10.4183 44.3197 9.92114 44.3425 9.44306C44.3591 9.31037 44.3259 9.1762 44.2492 9.06711C44.1726 8.95802 44.0583 8.88195 43.9288 8.85397C43.5878 8.74384 43.219 8.76185 42.8901 8.90466C42.8432 8.92268 42.7913 8.92268 42.7444 8.90466C42.5147 8.83256 42.2672 8.84472 42.0455 8.93901C41.8239 9.03329 41.6423 9.20363 41.5328 9.41999C41.1235 10.0229 40.7858 10.681 40.4076 11.3116C40.3523 11.4076 40.2668 11.4821 40.1648 11.5233C40.096 11.5372 40.0309 11.5654 39.9734 11.6059C39.8423 11.6932 39.7509 11.8295 39.7193 11.9848C39.6876 12.1402 39.7184 12.3019 39.8047 12.4343C39.8545 12.5436 39.8689 12.6661 39.8457 12.7841C39.7182 13.4423 39.5633 14.0957 39.4363 14.7538C39.3914 14.9731 39.4106 15.2009 39.4914 15.4094C39.5723 15.6179 39.7115 15.7982 39.8919 15.9282C40.1374 16.1306 40.393 16.3098 40.6474 16.4852C40.8553 16.6438 41.1088 16.7297 41.3694 16.7297C41.63 16.7297 41.8835 16.6438 42.0915 16.4852C42.3493 16.3216 42.5865 16.1269 42.7976 15.9053C43.3261 15.2933 43.8409 14.6674 44.351 14.0228C44.4599 13.8988 44.5182 13.7375 44.514 13.5717C44.5097 13.4059 44.4433 13.2479 44.3281 13.1297H44.3294ZM42.8725 10.2587C42.8451 10.719 42.8496 11.1793 42.7906 11.6397C42.7547 11.9159 42.4944 12.0213 42.2485 12.0493C42.0574 12.0608 41.8657 12.0608 41.6746 12.0493C41.9067 11.3542 42.3207 10.7355 42.8726 10.2589L42.8725 10.2587Z" fill="#F94B1D"/>
<path d="M50.5248 9.1843C50.2833 9.07383 50.0329 8.99097 49.7822 8.9032C49.6499 8.86036 49.5077 8.86039 49.3754 8.90331C49.2432 8.94622 49.1275 9.02986 49.0447 9.14251C48.867 9.33585 48.721 9.55608 48.5891 9.71308V9.97074C48.3522 9.80538 48.1335 9.40453 47.8688 9.26662C47.8357 9.24489 47.8006 9.22662 47.7639 9.21211C47.6677 9.16941 47.5641 9.14635 47.459 9.14426C47.3539 9.14217 47.2495 9.16109 47.1517 9.19993C47.0538 9.23877 46.9646 9.29677 46.8891 9.37058C46.8135 9.4444 46.7532 9.53257 46.7115 9.63003C46.4057 10.0903 46.0965 10.5506 45.773 11.011C45.3773 11.554 45.4454 11.9315 46.0185 12.1985C45.7679 13.216 45.5174 14.2282 45.2715 15.2452C45.2713 15.2687 45.2633 15.2914 45.2487 15.3097C45.1772 15.5374 45.1962 15.7843 45.3016 15.9981C45.4069 16.212 45.5905 16.3761 45.8134 16.4557C45.941 16.5202 46.0685 16.5845 46.2007 16.6398H46.2462C46.3144 16.6695 46.3877 16.6853 46.462 16.6863C46.5363 16.6873 46.61 16.6736 46.679 16.6458C46.748 16.618 46.8108 16.5767 46.864 16.5243C46.9172 16.4719 46.9596 16.4095 46.9889 16.3405C47.1252 16.0824 47.2349 15.8108 47.3164 15.5301C47.6747 14.3389 48.1701 13.1943 48.7924 12.1198C48.8379 12.0371 48.8926 11.9586 48.9017 11.945C49.1183 12.1837 49.3512 12.4067 49.5987 12.6124C49.6833 12.689 49.7867 12.7413 49.8981 12.7637C50.0095 12.7861 50.1249 12.7778 50.232 12.7396C50.3392 12.7015 50.4342 12.635 50.5071 12.547C50.5801 12.459 50.6282 12.3528 50.6466 12.2395C50.875 11.5091 50.9827 10.7456 50.9655 9.97982C50.9822 9.8176 50.9489 9.65412 50.8701 9.51176C50.7913 9.36939 50.6709 9.25509 50.5254 9.18449L50.5248 9.1843Z" fill="#F94B1D"/>
<path d="M49.6182 12.3466C49.5223 12.2814 49.4337 12.2057 49.354 12.1211C49.4348 12.2046 49.5233 12.2801 49.6182 12.3466Z" fill="#F94B1D"/>
<path d="M52.2652 7.51456H52.0776V7.15551H52.2645C52.4969 7.15551 52.4969 7.28906 52.4969 7.33031C52.4969 7.37156 52.4975 7.51456 52.2652 7.51456ZM52.7572 7.33049C52.7609 7.27178 52.7527 7.21291 52.7332 7.1575C52.7136 7.10208 52.683 7.05128 52.6434 7.0082C52.6037 6.96512 52.5558 6.93066 52.5025 6.90694C52.4492 6.88321 52.3917 6.87072 52.3334 6.87022H51.8233V8.11747H52.0776V7.77677H52.3009L52.5464 8.11729H52.8653L52.5645 7.70372C52.6248 7.66384 52.674 7.60911 52.7074 7.5447C52.7409 7.48029 52.7576 7.40831 52.7559 7.33558L52.7572 7.33049ZM52.3016 8.47107C52.0478 8.47107 51.8045 8.36924 51.6251 8.18799C51.4457 8.00673 51.3449 7.7609 51.3449 7.50457C51.3449 7.24823 51.4457 7.0024 51.6251 6.82115C51.8045 6.63989 52.0478 6.53806 52.3016 6.53806C52.5553 6.53806 52.7987 6.63989 52.9781 6.82115C53.1575 7.0024 53.2583 7.24823 53.2583 7.50457C53.2583 7.7609 53.1575 8.00673 52.9781 8.18799C52.7987 8.36924 52.5553 8.47107 52.3016 8.47107ZM52.3016 6.16992C52.0403 6.16992 51.7849 6.2482 51.5676 6.39485C51.3504 6.5415 51.181 6.74995 51.081 6.99382C50.981 7.2377 50.9549 7.50605 51.0059 7.76494C51.0568 8.02384 51.1827 8.26165 51.3674 8.4483C51.5522 8.63496 51.7876 8.76207 52.0438 8.81357C52.3001 8.86507 52.5657 8.83864 52.8071 8.73762C53.0486 8.6366 53.2549 8.46554 53.4 8.24606C53.5452 8.02658 53.6227 7.76854 53.6227 7.50457C53.6225 7.15069 53.4833 6.81136 53.2356 6.56118C52.9878 6.31101 52.6519 6.17047 52.3016 6.17047V6.16992Z" fill="#F94B1D"/>
<path d="M49.8335 15.2345C49.8335 15.0296 49.8936 14.8294 50.0063 14.659C50.1189 14.4887 50.2791 14.356 50.4664 14.2776C50.6537 14.1992 50.8599 14.1787 51.0587 14.2186C51.2576 14.2586 51.4403 14.3572 51.5837 14.5021C51.7271 14.6469 51.8247 14.8315 51.8643 15.0324C51.9038 15.2333 51.8835 15.4416 51.8059 15.6308C51.7283 15.8201 51.5969 15.9818 51.4283 16.0956C51.2597 16.2095 51.0615 16.2702 50.8587 16.2702C50.5868 16.2702 50.326 16.1611 50.1338 15.9668C49.9415 15.7726 49.8335 15.5092 49.8335 15.2345Z" fill="#F94B1D"/>
<path d="M50.8581 16.3999C50.6299 16.3999 50.4069 16.3316 50.2172 16.2035C50.0275 16.0755 49.8797 15.8935 49.7924 15.6806C49.7051 15.4676 49.6822 15.2333 49.7268 15.0073C49.7713 14.7812 49.8811 14.5736 50.0424 14.4106C50.2038 14.2477 50.4093 14.1367 50.633 14.0917C50.8568 14.0468 51.0887 14.0698 51.2995 14.158C51.5103 14.2462 51.6904 14.3956 51.8171 14.5872C51.9439 14.7789 52.0115 15.0042 52.0115 15.2346C52.0115 15.5437 51.89 15.8401 51.6737 16.0586C51.4574 16.2772 51.164 16.3999 50.8581 16.3999ZM50.8581 14.3295C50.6524 14.3309 50.4536 14.4042 50.2954 14.537C50.1372 14.6697 50.0294 14.8537 49.9903 15.0577C49.9512 15.2616 49.9833 15.473 50.081 15.6558C50.1787 15.8386 50.336 15.9816 50.5263 16.0604C50.7165 16.1393 50.9279 16.1491 51.1246 16.0883C51.3212 16.0275 51.4909 15.8998 51.6049 15.7268C51.7189 15.5539 51.77 15.3464 51.7497 15.1397C51.7293 14.933 51.6388 14.7397 51.4934 14.5928C51.4098 14.5089 51.3107 14.4424 51.2017 14.3973C51.0927 14.3521 50.9759 14.3291 50.8581 14.3295Z" fill="#F94B1D"/>
<path d="M58.0742 11.9193C57.7439 12.8134 57.4758 13.7298 57.2718 14.6616C57.3599 14.5743 57.4436 14.4825 57.5226 14.3867C57.5804 14.3106 57.6451 14.2402 57.7159 14.1763C57.7354 14.1433 57.7625 14.1155 57.7949 14.0953C57.8274 14.0752 57.8641 14.0632 57.9021 14.0605C57.9665 14.0605 57.9952 14.0605 57.9952 14.1546C57.9922 14.2022 57.9746 14.2476 57.9451 14.2848C57.5754 14.8265 57.3081 15.4327 57.1567 16.0728C57.1207 16.2465 57.0635 16.333 56.9919 16.333C56.8439 16.2955 56.7065 16.2236 56.5907 16.1231C56.4761 16.0504 56.4108 15.9855 56.3973 15.935C56.3743 15.8424 56.3743 15.7455 56.3973 15.6528C56.5344 14.739 56.7551 13.8399 57.0565 12.9672C56.6142 13.6705 56.1157 14.3362 55.5662 14.9576C55.208 15.3973 54.8098 15.8021 54.3767 16.1665C54.2619 16.263 54.1231 16.3259 53.9754 16.3482C53.8439 16.322 53.7224 16.2591 53.6245 16.1665C53.5235 16.1121 53.4394 16.0306 53.3812 15.931C53.3231 15.8314 53.2932 15.7176 53.2948 15.602C53.2917 15.5489 53.2917 15.4958 53.2948 15.4428C53.4295 14.6725 53.7091 13.9354 54.1186 13.2715C54.5458 12.486 55.092 11.7727 55.7374 11.1577C55.8709 11.0024 56.0579 10.9041 56.2604 10.8828C56.595 11.0095 56.893 11.2185 57.1276 11.4908C57.1438 11.5042 57.1573 11.5207 57.1671 11.5395C57.177 11.5582 57.1831 11.5787 57.1849 11.5998C57.1849 11.6649 57.142 11.7012 57.0488 11.7012C57.0181 11.7079 56.9863 11.7079 56.9556 11.7012C56.8467 11.6377 56.7231 11.6042 56.5972 11.6042C56.4714 11.6042 56.3478 11.6377 56.2389 11.7012C55.7239 12.1288 55.2832 12.6402 54.9348 13.2143C54.4499 13.9001 54.1082 14.6784 53.9305 15.5018V15.5814C53.9305 15.603 53.9734 15.7406 54.0592 15.7406C54.2606 15.7123 54.4432 15.6058 54.5681 15.4437C55.1124 14.8989 55.6181 14.3159 56.0813 13.6993C56.4937 13.1954 56.8496 12.6469 57.1425 12.0639C57.2571 11.789 57.3287 11.6006 57.3648 11.4848C57.401 11.3691 57.4727 11.2026 57.5368 11.2026C57.7017 11.2559 57.8533 11.3446 57.981 11.4628C58.0742 11.5355 58.1314 11.6004 58.1386 11.6582C58.1334 11.7482 58.1115 11.8364 58.0742 11.9184V11.9193Z" fill="#F94B1D"/>
<path d="M58.367 12.02C58.058 12.8969 57.8184 13.7972 57.6504 14.7124L57.0628 14.372L57.5287 13.858L57.4643 13.923C57.7794 13.4669 58.5677 13.6984 58.3456 14.3284C57.928 14.954 57.6246 15.6501 57.4499 16.3837C57.3973 16.4927 57.3072 16.5787 57.1965 16.6255C57.0858 16.6724 56.962 16.677 56.8482 16.6385C56.6764 16.5727 56.5147 16.4824 56.3682 16.3704C56.2372 16.2867 56.1366 16.1623 56.0815 16.0159V16.0601C56.0408 15.9441 56.0261 15.8205 56.0385 15.6981C56.185 14.712 56.4251 13.7423 56.7552 12.8026L57.399 13.1148C56.9344 13.8416 56.4119 14.529 55.8368 15.1701C55.2636 15.771 54.2461 17.1825 53.4864 16.4151C51.8812 15.503 54.7832 11.16 56.0158 10.566C56.5103 10.3125 57.1265 10.9713 57.3702 11.1885C57.451 11.249 57.5082 11.3362 57.5319 11.4349C57.5556 11.5336 57.5444 11.6376 57.5 11.7288C57.4557 11.82 57.3812 11.8927 57.2894 11.9341C57.1976 11.9755 57.0943 11.9832 56.9975 11.9557C56.632 11.8466 56.5675 11.7676 56.2807 12.0425C55.3224 12.9873 54.6278 14.1709 54.2672 15.4737C54.2672 15.6191 54.2672 15.5533 54.1952 15.4737C54.1604 15.4452 54.1181 15.4275 54.0734 15.423C54.8292 14.7837 55.4925 14.0405 56.044 13.2151C56.4918 12.6582 56.8389 12.0259 57.0693 11.3473C57.1123 11.2172 57.2054 10.9492 57.442 10.8985C57.5749 10.8769 57.711 10.9081 57.8218 10.9853C58.0365 11.0949 58.2249 11.2505 58.3737 11.4414C58.4179 11.5327 58.441 11.633 58.441 11.7346C58.441 11.8362 58.4179 11.9365 58.3737 12.0278L58.367 12.02ZM57.7794 11.8174C57.7992 11.7685 57.8136 11.7175 57.8224 11.6655V11.7596C57.7107 11.661 57.5881 11.576 57.4569 11.5061H57.5648C57.6727 11.5061 57.701 11.3607 57.6436 11.5061C56.9932 13.0823 56.0158 14.4992 54.7774 15.6614C54.4405 16.0741 53.5952 16.2912 53.6238 15.4797C53.8328 14.475 54.261 13.53 54.8771 12.7136C55.2225 12.1616 55.6702 11.6822 56.1957 11.3019C56.3353 11.2431 56.4851 11.2129 56.6363 11.2129C56.7876 11.2129 56.9374 11.2431 57.077 11.3019C57.0421 11.3055 57.0087 11.3181 56.9799 11.3383C56.9511 11.3586 56.9278 11.3858 56.9123 11.4176C56.8824 11.453 56.866 11.4979 56.866 11.5444C56.866 11.5908 56.8824 11.6358 56.9123 11.6711C56.714 11.4655 56.4871 11.2902 56.2387 11.1509H56.1953C56.1071 11.1912 56.027 11.2476 55.959 11.3173C54.7714 12.4204 53.9547 13.8709 53.6232 15.4659C53.6062 15.5333 53.6125 15.6046 53.6412 15.6678C53.6699 15.7311 53.7191 15.7825 53.7808 15.8135C53.8519 15.8665 53.9261 15.9151 54.0031 15.9589H53.9529C54.1369 15.8711 54.3024 15.7482 54.4402 15.5969C55.3152 14.7247 56.0871 13.7528 56.7403 12.7008L57.384 13.0192C57.0767 13.907 56.8583 14.8237 56.732 15.7555C56.6676 15.618 56.732 15.7121 56.732 15.7192C56.8237 15.7834 56.9195 15.8415 57.0187 15.8929C56.9718 15.8856 56.9237 15.8911 56.8796 15.909C56.8355 15.9268 56.797 15.9563 56.768 15.9943C56.768 15.9943 56.8254 15.7697 56.8612 15.6323C57.031 15.0533 57.2922 14.5058 57.6346 14.0108C57.5626 14.1338 57.7425 14.3584 57.8853 14.3438C58.0281 14.3293 57.9932 14.3004 57.9785 14.3438L57.9141 14.4089C57.8209 14.539 57.599 14.7634 57.4912 14.8866L56.9036 15.5237V14.5681C57.1362 13.6347 57.4233 12.7162 57.7636 11.8172L57.7794 11.8174Z" fill="#F94B1D"/>
<path d="M61.1697 11.832C60.9617 12.7975 60.6985 13.75 60.3814 14.6848C60.5659 14.4996 60.7337 14.2983 60.883 14.0831C60.8923 14.0677 60.9048 14.0545 60.9196 14.0445C60.9345 14.0345 60.9513 14.0279 60.969 14.0252C61.0409 14.0252 61.0478 14.0831 60.969 14.2069C60.8902 14.3306 60.7685 14.54 60.4388 15.0756C60.2202 15.416 60.0354 15.7773 59.8869 16.1543C59.8741 16.1994 59.8467 16.2389 59.809 16.2665C59.7714 16.294 59.7256 16.308 59.6792 16.3062C59.5327 16.2902 59.3924 16.2381 59.2707 16.1543C59.1561 16.0963 59.106 16.0529 59.106 16.0242C59.1175 15.9653 59.1393 15.9089 59.1703 15.8577C59.4911 15.2126 59.7456 14.5359 59.9297 13.8384C60.1438 13.1718 60.2926 12.4856 60.374 11.7896C60.374 11.6016 60.374 11.5074 60.3166 11.5074C60.2593 11.5074 60.2163 11.5509 60.1161 11.645L59.7297 12.0142C59.5936 12.1443 59.522 12.1518 59.522 12.0142C59.5249 11.9653 59.5453 11.919 59.5794 11.8841C59.7754 11.6075 59.9859 11.3417 60.21 11.0877C60.2437 11.0604 60.2837 11.0421 60.3262 11.0345C60.3688 11.0269 60.4126 11.0303 60.4535 11.0443C60.5623 11.0614 60.6641 11.1091 60.7474 11.1818C60.857 11.2055 60.9647 11.237 61.0699 11.2759C61.1208 11.3137 61.161 11.3644 61.1862 11.4229C61.2115 11.4814 61.221 11.5456 61.2138 11.609C61.204 11.6847 61.1896 11.7597 61.1708 11.8336L61.1697 11.832ZM62.0583 9.04493C62.0872 9.06401 62.1114 9.08965 62.1288 9.1198C62.1462 9.14996 62.1564 9.1838 62.1586 9.21864C62.1586 9.34166 61.9788 9.53082 61.614 9.79102C61.5136 9.86969 61.3977 9.92586 61.2741 9.95581C61.1505 9.98577 61.0221 9.98881 60.8972 9.96474C60.7812 9.94294 60.6713 9.89601 60.5749 9.82718L60.503 9.74759C60.498 9.7375 60.4954 9.72636 60.4954 9.71507C60.4954 9.70378 60.498 9.69264 60.503 9.68254H60.5818C60.8501 9.45792 61.1039 9.21605 61.3415 8.95844C61.4419 8.84941 61.5063 8.79199 61.5492 8.79199C61.7367 8.83885 61.9122 8.92523 62.0642 9.04548L62.0583 9.04493Z" fill="#F94B1D"/>
<path d="M61.1822 8.40148H61.2291L61.2746 8.41275C61.5155 8.47232 61.741 8.58308 61.9362 8.73764L62.133 9.0718V9.43522C61.9763 9.71339 61.7492 9.94447 61.475 10.1048C61.3318 10.2153 61.1672 10.294 60.9919 10.3358C60.8166 10.3777 60.6345 10.3818 60.4575 10.3478C60.2871 10.3154 60.1255 10.2463 59.9837 10.1453L59.9503 10.1208L59.8148 9.97017L59.7911 9.92256C59.759 9.85795 59.7423 9.78668 59.7423 9.71441C59.7423 9.64214 59.759 9.57087 59.7911 9.50627L59.899 9.29167H60.0746C60.257 9.1334 60.4329 8.96568 60.5996 8.79106L60.7284 8.65478C60.7827 8.58304 60.8511 8.52341 60.9293 8.47964C61.0076 8.43586 61.0939 8.40888 61.1829 8.40039L61.1822 8.40148ZM61.2754 9.23734L61.2539 9.22753C61.1728 9.31547 61.0895 9.40221 61.0041 9.48773L61.0099 9.48337L61.0237 9.47301C61.1202 9.40557 61.2131 9.33316 61.3022 9.25605L61.2754 9.23734ZM60.0035 10.6383C60.0614 10.6383 60.119 10.6462 60.1748 10.6617C60.3085 10.6868 60.4356 10.74 60.5478 10.8178C60.6452 10.8423 60.7413 10.872 60.8356 10.9069L60.887 10.9261L60.9313 10.9592C61.0367 11.038 61.1198 11.1434 61.1721 11.2648C61.2244 11.3863 61.2441 11.5195 61.2293 11.6511V11.657C61.2178 11.7457 61.2011 11.8337 61.1793 11.9204C61.0534 12.5019 60.9079 13.081 60.7415 13.6545C60.8486 13.6869 60.9387 13.7608 60.9921 13.86C61.0345 13.9496 61.0508 14.0496 61.039 14.1482C61.0273 14.2468 60.9881 14.34 60.9259 14.4169C60.8919 14.4689 60.8458 14.547 60.7762 14.6615C60.6917 14.8012 60.576 14.9924 60.3994 15.2793L60.3956 15.2855C60.1935 15.6005 60.0222 15.9345 59.8839 16.2829C59.8431 16.4062 59.7638 16.5128 59.658 16.5868C59.5523 16.6609 59.4256 16.6984 59.297 16.6937H59.2837L59.2706 16.6921C59.0704 16.6701 58.8781 16.6009 58.7092 16.4902C58.6121 16.4541 58.5271 16.391 58.464 16.3081C58.4008 16.2252 58.3622 16.126 58.3525 16.022V15.984L58.3601 15.9465C58.3793 15.8485 58.4146 15.7544 58.4646 15.6682C58.7705 15.0505 59.0135 14.403 59.1898 13.7357L59.1957 13.7159C59.3359 13.2791 59.4472 12.8334 59.5287 12.3816C59.4373 12.457 59.3239 12.4997 59.206 12.5032C59.1447 12.5021 59.0843 12.4883 59.0285 12.4626C58.9727 12.4369 58.9227 12.3999 58.8816 12.3539C58.8406 12.3079 58.8093 12.2539 58.7898 12.1952C58.7703 12.1364 58.7629 12.0743 58.7682 12.0126V11.9897C58.7758 11.8594 58.8258 11.7353 58.9103 11.6366C59.1109 11.3555 59.3257 11.0852 59.554 10.8266L59.5756 10.802L59.6013 10.7815C59.7156 10.6893 59.8573 10.6388 60.0035 10.6383ZM60.4557 11.6014C60.4335 11.5946 60.4113 11.5885 60.389 11.5832C60.3933 11.6417 60.3933 11.7068 60.3933 11.788V11.8127L60.3908 11.8356C60.3845 11.8891 60.3779 11.9426 60.371 11.996C60.3896 11.914 60.4076 11.8321 60.425 11.7502L60.4284 11.7358C60.4395 11.6919 60.4487 11.6477 60.4557 11.6044V11.6014ZM59.8546 14.6866L59.7346 14.6106C59.6467 14.8742 59.5489 15.1347 59.4411 15.392C59.5345 15.2117 59.6359 15.0361 59.7452 14.865L59.8546 14.6866Z" fill="#F94B1D"/>
<path d="M11.2986 8.7041C11.5155 8.7181 11.7193 8.81396 11.8695 8.97267L11.874 8.97666L11.8781 8.98121C11.9658 9.07652 12.0842 9.13718 12.2122 9.15233C12.3401 9.16748 12.4692 9.13613 12.5764 9.06388L12.5846 9.05843L12.5934 9.05425C12.7602 8.97455 12.942 8.93227 13.1264 8.93033C13.2692 8.93016 13.4107 8.95874 13.5425 9.0144C13.6743 9.07006 13.7938 9.15168 13.8941 9.2545C14.1229 9.49824 14.2739 9.80586 14.3275 10.1374V10.1423C14.3999 10.6171 14.3877 11.101 14.2916 11.5715C14.2045 12.1789 14.0557 12.7756 13.8475 13.3522C13.6385 13.9297 13.3711 14.4838 13.0494 15.0057L13.0478 15.0083C12.8968 15.2409 12.7293 15.4621 12.5465 15.6701C12.3366 15.9303 12.056 16.1227 11.7392 16.2238C11.4224 16.3248 11.0832 16.3301 10.7635 16.2388C10.6635 16.2141 10.562 16.1974 10.4547 16.1794C10.3334 16.1592 10.2081 16.1383 10.0843 16.1053C9.63953 15.9852 9.25303 15.706 8.99675 15.3196C8.74047 14.9332 8.63184 14.466 8.69109 14.0047C8.81216 13.0008 9.0859 12.0218 9.50264 11.1023C9.73522 10.5651 9.99555 10.0407 10.2825 9.53106L10.2838 9.52869C10.3813 9.36407 10.4989 9.21254 10.634 9.07769C10.8763 8.81967 11.082 8.7041 11.2986 8.7041ZM11.7024 9.15474C11.5961 9.04065 11.4528 8.96883 11.2986 8.95231C11.1569 8.95231 11.0022 9.04753 10.8113 9.25177L10.8083 9.25577C10.6877 9.37601 10.5826 9.51119 10.4955 9.65807C10.2129 10.1599 9.95653 10.6764 9.72747 11.2053V11.2073C9.32099 12.1041 9.05405 13.0589 8.93606 14.038V14.0389C8.8844 14.4405 8.97891 14.8474 9.20201 15.1839C9.42511 15.5204 9.7616 15.7635 10.1489 15.8681C10.2633 15.897 10.3791 15.92 10.4959 15.9372C10.6038 15.9553 10.7153 15.9735 10.8252 16.0008L10.8295 16.0019C11.1037 16.0805 11.3946 16.0762 11.6664 15.9894C11.9381 15.9027 12.1787 15.7373 12.3584 15.5138L12.362 15.5096C12.5368 15.3106 12.6971 15.0989 12.8415 14.8764C13.1539 14.3689 13.4136 13.8303 13.6165 13.269C13.8192 12.7071 13.9638 12.1256 14.0482 11.5337L14.0495 11.5262C14.1407 11.0841 14.1529 10.6291 14.0854 10.1827C13.9651 9.5634 13.5975 9.1789 13.1257 9.17872C12.9796 9.18062 12.8357 9.21388 12.7033 9.2763C12.5488 9.37765 12.3639 9.42104 12.1809 9.39893C11.9979 9.37682 11.8284 9.2906 11.7019 9.15528L11.7024 9.15474ZM13.225 9.86594L13.1933 10.0745C13.1545 10.3315 13.1214 10.5808 13.0899 10.8219C13.0392 11.2069 12.9917 11.5705 12.9239 11.9334V11.9367C12.74 12.8002 12.4154 13.6269 11.9634 14.383C11.7673 14.7598 11.4681 15.0717 11.1015 15.2814L11.0959 15.2843C10.967 15.3549 10.8237 15.3945 10.6772 15.4C10.6012 15.4015 10.5258 15.3855 10.4568 15.3534C10.3878 15.3212 10.3268 15.2737 10.2786 15.2143C10.174 15.0731 10.1105 14.9053 10.0949 14.7297V14.7263C10.0181 14.0071 10.106 13.2797 10.3518 12.6003C10.5703 11.9579 10.8398 11.3403 11.0747 10.8206C11.1477 10.6977 11.2641 10.6072 11.4004 10.5673L11.4168 10.5606L12.6017 10.0994L13.225 9.86594ZM12.6836 11.8858C12.749 11.5298 12.7971 11.1699 12.8472 10.7888C12.8704 10.612 12.8944 10.4307 12.921 10.245L12.6882 10.3326L11.4986 10.7941C11.4355 10.8219 11.3177 10.8735 11.3008 10.9149L11.2984 10.9204C11.0657 11.4355 10.7986 12.047 10.5831 12.6811V12.6837C10.3496 13.3271 10.2658 14.0162 10.3379 14.6976C10.3543 14.812 10.4012 15.1518 10.6768 15.1518C10.784 15.146 10.8885 15.1157 10.9826 15.0633C11.308 14.8765 11.5734 14.5989 11.747 14.2638L11.7506 14.2573C12.1893 13.5244 12.5044 12.723 12.683 11.8858H12.6836Z" fill="#F94B1D"/>
</g>
<path d="M69.3491 6.1875V16.6701" stroke="#908B8B" stroke-width="1.04826" stroke-linecap="round"/>
<path d="M75.7232 16.2794C77.3588 16.2803 78.9945 16.291 80.6299 16.2789C81.2838 16.2708 81.9084 16.0066 82.3697 15.5431C82.8309 15.0795 83.0919 14.4535 83.0966 13.7996C83.0946 12.564 82.429 11.7839 81.367 11.2836C81.615 11.0882 81.8944 10.9214 82.1034 10.6907C82.4031 10.3601 82.7401 10.0194 82.9062 9.61869C83.5875 7.97562 82.3828 6.22666 80.5684 6.20051C78.9878 6.17777 77.4066 6.1953 75.8257 6.1973C75.7453 6.2032 75.6654 6.21488 75.5867 6.23227C75.5867 7.91701 75.5867 9.57851 75.574 11.3167C75.5731 12.8548 75.5706 14.393 75.574 15.9312C75.5805 16.0614 75.6334 16.1849 75.7232 16.2794Z" fill="#FEFFFE"/>
<path d="M75.5854 11.2396V6.23169C75.6641 6.21418 75.7439 6.20236 75.8243 6.19633C77.4052 6.19432 78.9864 6.17679 80.567 6.19953C82.3814 6.22638 83.5861 7.97515 82.9048 9.61811C82.7387 10.0189 82.4017 10.3595 82.102 10.6901C81.893 10.9205 81.6136 11.0877 81.3336 11.3082C81.3216 11.3191 81.3069 11.3266 81.291 11.3298C81.2751 11.333 81.2586 11.3317 81.2434 11.3262C81.0493 11.2903 77.2998 11.2391 75.5854 11.2396Z" fill="#FF6900"/>
<path d="M81.2771 11.336C81.2895 11.3348 81.3019 11.3326 81.314 11.3296C82.4286 11.7834 83.0943 12.5635 83.0964 13.799C83.0916 14.4529 82.8306 15.0788 82.3694 15.5424C81.9082 16.0059 81.2837 16.2701 80.6298 16.2782C78.9943 16.2904 77.2519 16.3088 75.5913 16.2782C76.6232 15.3136 77.782 14.3446 78.8449 13.4164C79.6486 12.7148 80.4659 12.0289 81.2771 11.336Z" fill="#00BA00"/>
<path d="M81.2892 11.3274C80.5113 12.03 79.6486 12.715 78.8446 13.4166C77.7818 14.3445 75.5735 16.302 75.5735 16.302C75.5735 16.302 75.5735 16.0433 75.5735 15.9313C75.5697 14.3931 75.575 12.8128 75.5823 11.2364C77.3035 11.1972 81.0955 11.2917 81.2892 11.3274Z" fill="#F79E00"/>
<path d="M116.611 13.2792C116.297 12.0593 116.297 10.8704 116.788 9.71388C117.285 8.5439 118.189 7.8504 119.417 7.58741C120.57 7.34065 121.694 7.44344 122.756 7.98515C122.992 8.12032 123.221 8.26746 123.442 8.42598L122.926 9.53425C122.748 9.41903 122.583 9.30472 122.411 9.20122C122.01 8.95426 121.563 8.79119 121.097 8.72185C120.63 8.65251 120.155 8.67833 119.699 8.79777C118.878 8.99814 118.365 9.55398 118.129 10.3522C117.855 11.2584 117.857 12.2256 118.135 13.1306C118.446 14.1556 119.18 14.7075 120.31 14.7937C120.96 14.8383 121.613 14.7675 122.238 14.5844V12.4833H120.461V11.4096H123.607C123.609 11.4653 123.614 11.5186 123.614 11.5718C123.614 12.7807 123.615 13.9896 123.616 15.1985C123.616 15.3167 123.608 15.405 123.474 15.4567C122.069 15.9971 120.632 16.1927 119.161 15.7986C117.854 15.448 117.019 14.5837 116.611 13.2792Z" fill="#020202"/>
<path d="M88.3978 13.7144C88.3824 12.9889 88.3999 12.2843 88.3413 11.5861C88.2912 10.995 87.945 10.7169 87.3542 10.6718C86.3905 10.5979 85.6691 11.2198 85.6514 12.1809C85.6298 13.3257 85.6424 14.4712 85.6402 15.6163C85.6402 15.7016 85.6402 15.7866 85.6402 15.8832H84.0996V6.71338H85.6425V10.471C86.1595 9.76087 86.8204 9.42093 87.6313 9.41542C88.3738 9.41041 89.0629 9.57622 89.5185 10.2426C89.7467 10.5855 89.8828 10.9814 89.9136 11.3922C89.945 11.7296 89.9583 12.0698 89.9599 12.4089C89.9654 13.5611 89.962 14.7132 89.962 15.8804H88.3978V13.7144Z" fill="#010101"/>
<path d="M126.81 15.4675V15.8817H125.322V7.58985C125.345 7.58013 125.369 7.5734 125.394 7.56982C126.737 7.57873 128.079 7.5614 129.42 7.60688C130.536 7.64476 131.408 8.32302 131.666 9.25817C132.104 10.8449 131.132 12.2598 129.485 12.3806C128.699 12.4382 127.907 12.4146 127.118 12.4273C127.025 12.4288 126.931 12.4273 126.809 12.4273L126.81 15.4675ZM128.897 11.2472C129.372 11.2164 129.833 11.1357 130.126 10.7088C130.251 10.5371 130.329 10.3353 130.351 10.1239C130.373 9.91241 130.339 9.69887 130.252 9.50493C130.165 9.31099 130.028 9.14357 129.855 9.01967C129.682 8.89577 129.48 8.81981 129.268 8.79951C128.598 8.72016 127.915 8.75443 127.238 8.7394C127.099 8.73629 126.96 8.7394 126.826 8.7394V11.2483C127.512 11.2483 128.182 11.2483 128.898 11.247L128.897 11.2472Z" fill="#030303"/>
<path d="M110.167 14.0455V15.8808H108.631V15.0203C108.344 15.2498 108.077 15.5413 107.748 15.7128C106.486 16.3696 104.882 15.8953 104.244 14.6251C103.526 13.1954 103.568 11.7483 104.519 10.4227C105.426 9.15745 107.46 9.07129 108.414 10.2116C108.479 10.2885 108.536 10.3713 108.624 10.4867V9.59717H110.166L110.167 14.0455ZM107.806 14.567C107.964 14.4168 108.167 14.2929 108.271 14.1119C108.511 13.7107 108.645 13.255 108.66 12.7877C108.675 12.3204 108.57 11.8571 108.356 11.4416C107.844 10.384 106.302 10.3548 105.697 11.3601C105.296 12.0259 105.293 12.755 105.449 13.4882C105.683 14.5854 106.764 15.0881 107.807 14.5675L107.806 14.567Z" fill="#010101"/>
<path d="M92.157 15.2172C91.561 14.5909 91.3302 13.8387 91.2883 13.0116C91.2396 12.0543 91.422 11.1645 92.02 10.3857C92.943 9.18169 94.945 9.08461 95.895 10.2038C95.966 10.2866 96.026 10.3781 96.115 10.4988V9.59646H97.634V15.8836H96.134V14.8779C95.657 15.6193 95.011 15.9512 94.212 15.9853C93.429 16.0186 92.733 15.7976 92.158 15.2176M92.949 11.8987C92.821 12.4382 92.819 13.0001 92.944 13.5403C93.11 14.2422 93.627 14.704 94.307 14.7526C95.132 14.8113 95.672 14.489 95.945 13.7622C96.172 13.1337 96.192 12.4492 96.002 11.8085C95.649 10.4923 94.258 10.4413 93.586 10.9135C93.253 11.1472 93.08 11.4881 92.949 11.8987Z" fill="#010101"/>
<path d="M134.846 13.5245V8.81572H132.144V7.58252H139.069V8.80079H136.378V15.88H134.846V13.5245Z" fill="#040404"/>
<path d="M113.858 13.3335C113.858 13.5225 113.869 13.7113 113.891 13.899C113.991 14.4589 114.417 14.7606 114.987 14.6874C115.158 14.6654 115.328 14.6348 115.508 14.6066C115.513 14.6696 115.519 14.7237 115.519 14.7777C115.52 15.1243 115.519 15.4707 115.519 15.8344C114.773 16.0183 114.044 16.0881 113.342 15.7309C112.727 15.4181 112.44 14.8678 112.346 14.2122C112.308 13.8987 112.292 13.583 112.297 13.2673C112.29 12.4391 112.294 11.6106 112.294 10.7572H111.1V9.58322H112.29V8.04455L113.862 7.51807V9.57781H115.517V10.7414H113.858V13.3335Z" fill="#020202"/>
<path d="M100.723 9.63134C100.764 9.96386 100.801 10.2748 100.845 10.6514C101.404 9.56942 102.279 9.31394 103.367 9.5065V10.8816C102.998 10.8573 102.631 10.7967 102.269 10.8175C101.951 10.8353 101.649 10.9614 101.412 11.1747C101.175 11.388 101.019 11.6758 100.968 11.9902C100.931 12.1998 100.913 12.4124 100.914 12.6253C100.909 13.7057 100.912 14.7862 100.912 15.8814H99.3218V9.6097C99.7498 9.6098 100.235 9.6098 100.723 9.63134Z" fill="#020202"/>
<path d="M138.547 3.51949V2.81641H142.243V3.51949H140.812V7.45178H139.981V3.51949H138.547ZM142.712 2.81641H143.742L145.117 6.17317H145.17L146.548 2.81641H147.59V7.45178H146.766V4.26613H146.729L145.441 7.43623H144.837L143.565 4.25991H143.521V7.45178H142.712V2.81641Z" fill="#F94B1D"/>
<defs>
<clipPath id="clip0_3565_1100">
<rect width="62" height="14.3077" fill="white" transform="translate(0.5 4.3457)"/>
</clipPath>
</defs>
</svg>
