<svg width="20" height="20" viewBox="0 0 20 20" fill="none" xmlns="http://www.w3.org/2000/svg">
<path d="M11.9062 9.25345C11.9384 9.16639 12.0616 9.16639 12.0938 9.25345L13.3345 12.6064C13.3446 12.6338 13.3662 12.6554 13.3936 12.6655L16.7465 13.9062C16.8336 13.9384 16.8336 14.0616 16.7465 14.0938L13.3936 15.3345C13.3662 15.3446 13.3446 15.3662 13.3345 15.3936L12.0938 18.7465C12.0616 18.8336 11.9384 18.8336 11.9062 18.7465L10.6655 15.3936C10.6554 15.3662 10.6338 15.3446 10.6064 15.3345L7.25345 14.0938C7.16639 14.0616 7.16639 13.9384 7.25345 13.9062L10.6064 12.6655C10.6338 12.6554 10.6554 12.6338 10.6655 12.6064L11.9062 9.25345Z" fill="#2639AB"/>
<path d="M5.90621 4.25345C5.93843 4.16639 6.06157 4.16639 6.09379 4.25345L7.06441 6.87651C7.07453 6.90388 7.09612 6.92547 7.12349 6.93559L9.74655 7.90621C9.83361 7.93843 9.83361 8.06157 9.74655 8.09379L7.12349 9.06441C7.09612 9.07453 7.07453 9.09612 7.06441 9.12349L6.09379 11.7465C6.06157 11.8336 5.93843 11.8336 5.90621 11.7465L4.93559 9.12349C4.92547 9.09612 4.90388 9.07453 4.87651 9.06441L2.25345 8.09379C2.16639 8.06157 2.16639 7.93843 2.25345 7.90621L4.87651 6.93559C4.90388 6.92547 4.92547 6.90388 4.93559 6.87651L5.90621 4.25345Z" fill="#2639AB"/>
<path d="M11.9062 2.25345C11.9384 2.16639 12.0616 2.16639 12.0938 2.25345L12.7943 4.1466C12.8044 4.17398 12.826 4.19556 12.8534 4.20569L14.7465 4.90621C14.8336 4.93843 14.8336 5.06157 14.7465 5.09379L12.8534 5.79431C12.826 5.80444 12.8044 5.82602 12.7943 5.8534L12.0938 7.74655C12.0616 7.83361 11.9384 7.83361 11.9062 7.74655L11.2057 5.8534C11.1956 5.82602 11.174 5.80444 11.1466 5.79431L9.25345 5.09379C9.16639 5.06157 9.16639 4.93843 9.25345 4.90621L11.1466 4.20569C11.174 4.19556 11.1956 4.17398 11.2057 4.1466L11.9062 2.25345Z" fill="#2639AB"/>
</svg>
