<svg width="20" height="20" viewBox="0 0 20 20" fill="none" xmlns="http://www.w3.org/2000/svg">
<path d="M10.0026 12.5026C10.8867 12.5026 11.7345 12.1514 12.3596 11.5263C12.9847 10.9012 13.3359 10.0533 13.3359 9.16927V4.16927C13.3359 3.28522 12.9847 2.43737 12.3596 1.81225C11.7345 1.18713 10.8867 0.835938 10.0026 0.835938C9.11855 0.835938 8.2707 1.18713 7.64558 1.81225C7.02046 2.43737 6.66927 3.28522 6.66927 4.16927V9.16927C6.66927 10.0533 7.02046 10.9012 7.64558 11.5263C8.2707 12.1514 9.11855 12.5026 10.0026 12.5026ZM8.33594 4.16927C8.33594 3.72724 8.51153 3.30332 8.82409 2.99076C9.13665 2.6782 9.56058 2.5026 10.0026 2.5026C10.4446 2.5026 10.8686 2.6782 11.1811 2.99076C11.4937 3.30332 11.6693 3.72724 11.6693 4.16927V9.16927C11.6693 9.6113 11.4937 10.0352 11.1811 10.3478C10.8686 10.6603 10.4446 10.8359 10.0026 10.8359C9.56058 10.8359 9.13665 10.6603 8.82409 10.3478C8.51153 10.0352 8.33594 9.6113 8.33594 9.16927V4.16927ZM16.6693 9.16927C16.6693 8.94826 16.5815 8.7363 16.4252 8.58002C16.2689 8.42374 16.057 8.33594 15.8359 8.33594C15.6149 8.33594 15.403 8.42374 15.2467 8.58002C15.0904 8.7363 15.0026 8.94826 15.0026 9.16927C15.0026 10.4954 14.4758 11.7671 13.5381 12.7048C12.6005 13.6425 11.3287 14.1693 10.0026 14.1693C8.67652 14.1693 7.40475 13.6425 6.46707 12.7048C5.52939 11.7671 5.0026 10.4954 5.0026 9.16927C5.0026 8.94826 4.91481 8.7363 4.75853 8.58002C4.60225 8.42374 4.39028 8.33594 4.16927 8.33594C3.94826 8.33594 3.7363 8.42374 3.58002 8.58002C3.42374 8.7363 3.33594 8.94826 3.33594 9.16927C3.33741 10.792 3.93071 12.3585 5.0046 13.5751C6.0785 14.7917 7.55925 15.5748 9.16927 15.7776V17.5026H7.5026C7.28159 17.5026 7.06963 17.5904 6.91335 17.7467C6.75707 17.903 6.66927 18.1149 6.66927 18.3359C6.66927 18.557 6.75707 18.7689 6.91335 18.9252C7.06963 19.0815 7.28159 19.1693 7.5026 19.1693H12.5026C12.7236 19.1693 12.9356 19.0815 13.0919 18.9252C13.2481 18.7689 13.3359 18.557 13.3359 18.3359C13.3359 18.1149 13.2481 17.903 13.0919 17.7467C12.9356 17.5904 12.7236 17.5026 12.5026 17.5026H10.8359V15.7776C12.446 15.5748 13.9267 14.7917 15.0006 13.5751C16.0745 12.3585 16.6678 10.792 16.6693 9.16927Z" fill="white"/>
</svg>
